<svg version="1.1" width="230" height="98" viewBox="-1 -1 230 98" xmlns="http://www.w3.org/2000/svg" xmlns:xlink="http://www.w3.org/1999/xlink">
  <!-- Exported by Scratch - http://scratch.mit.edu/ -->
  <g id="ID0.5210855384357274" transform="matrix(1, 0, 0, 1, 0, -3)">
    <g id="ID0.056279932614415884">
      <path id="ID0.2431204472668469" fill="#003FFF" d="M 219.800 38.800 C 217.600 35.800 215.600 33.700 213.700 32.200 L 90.700 33.500 C 88.500 28 85.100 23 80.500 18.400 C 71.500 9.500 60.700 5 48 5 C 35.300 5 24.500 9.500 15.500 18.400 C 6.500 27.500 2 38.300 2 51 C 2 63.700 6.500 74.500 15.500 83.500 C 24.500 92.500 35.300 97 48 97 C 60.700 97 71.500 92.500 80.500 83.500 C 85 79 88.400 74.100 90.600 68.700 L 90.900 68.900 C 92.300 69 94.900 69 98.700 68.700 C 99.700 66.800 100.700 64.600 101.700 62 C 102.500 60.300 103.000 59.300 103.500 58.800 C 104.200 58.100 107.200 57.700 112.600 57.700 C 113.600 57.700 115.900 58.400 119.400 59.900 C 119.500 59.900 120.200 59.400 121.500 58.300 C 123.200 57.300 124.600 56.800 125.700 56.800 C 127.100 60.300 128.600 62.200 130.300 62.400 C 131.000 61.400 131.500 60.200 132.000 58.800 C 132.500 57.800 133.300 57.300 134.300 57.300 C 134.800 57.300 136.600 57.400 139.600 57.500 C 140.500 57.500 141.300 58 141.900 58.800 C 142.600 59.700 143.200 60.100 143.600 60.100 C 143.800 60.100 144.800 59.500 146.400 58.200 C 148.100 56.900 149.100 56.300 149.600 56.300 C 149.700 56.300 150.400 57 151.800 58.600 C 153.300 60.100 154.700 60.900 155.800 60.900 C 155.900 60.900 156.600 60.000 157.800 58.200 C 159.200 56.400 160.100 55.500 160.400 55.500 C 160.800 55.500 161.500 55.900 162.600 56.600 C 163.800 57.300 164.600 57.700 165.100 57.700 C 165.700 57.700 168.900 57.400 174.700 56.800 L 174.400 56.500 L 174.900 56.500 L 174.900 56.800 L 174.800 56.900 L 177.400 59.600 C 178.100 58.900 179.200 57.300 180.800 55.000 C 180.800 55.200 180.900 55.300 181.000 55.300 C 182.000 58.500 183.500 60.100 185.500 60.100 L 191.900 59.600 C 193.400 59.600 194.500 59.700 195.200 59.700 C 195.500 59.500 196.400 57.800 197.900 54.500 C 197.900 54.700 198.000 54.800 198.100 54.800 C 198.200 54.800 198.700 55.800 199.600 57.600 C 200.400 59.000 201.000 59.900 201.500 60.100 L 201.700 59.900 C 201.800 59.000 202.300 57.900 203.000 56.600 C 203.500 55.800 204.100 54.800 204.900 53.600 C 206.400 56.300 210.200 57.700 216.200 57.700 C 218.500 57.700 220.300 56.600 221.500 54.600 C 222.200 53.300 223.800 50.600 226.000 46.500 L 225.400 45.500 C 224.100 44.400 222.300 42.100 219.800 38.800 Z M 10.800 47.100 C 10.800 45.100 11.400 42.900 12.500 40.800 C 13.900 38.200 15.600 36.900 17.400 36.900 C 22.800 36.900 25.400 40.700 25.400 48.300 C 25.400 49.800 24.700 51.500 23.300 53.600 C 21.700 55.900 20.000 57.100 18.300 57.100 C 15.900 57.100 14.000 55.900 12.500 53.600 C 11.400 51.700 10.800 49.500 10.800 47.100 Z M 36.600 14 C 48.100 13 57.900 15.800 66 22.200 C 74.500 29.100 78.800 38.400 78.800 50.200 C 78.800 59.400 75.200 67.600 68 74.700 C 61.100 81.600 53.500 85.100 45.200 85.100 C 42.500 85.100 40.600 85.200 39.600 85.500 L 39.600 82.900 C 40.800 76.700 41.300 71.100 41.300 66.400 C 41.300 59.700 40.800 50.600 39.900 39.200 C 38.800 26.600 37.800 18.300 36.600 14 Z "/>
      <path id="ID0.03608744312077761" fill="#003FFF" d="M 66 22.200 C 57.900 15.800 48.100 13 36.600 14 C 37.800 18.300 38.800 26.600 39.900 39.200 C 40.800 50.600 41.300 59.700 41.300 66.400 C 41.300 71.100 40.800 76.700 39.600 82.900 L 39.600 85.500 C 40.600 85.200 42.500 85.100 45.200 85.100 C 53.500 85.100 61.100 81.600 68 74.700 C 75.200 67.600 78.800 59.400 78.800 50.200 C 78.800 38.400 74.500 29.100 66 22.200 Z "/>
      <path id="ID0.08012649836018682" fill="none" stroke="#000000" stroke-width="4" stroke-linecap="round" stroke-linejoin="round" d="M 226 46.500 C 223.800 50.600 222.200 53.300 221.500 54.600 C 220.300 56.600 218.500 57.700 216.200 57.700 C 210.200 57.700 206.400 56.300 204.900 53.600 C 204.100 54.800 203.500 55.800 203.000 56.600 C 202.300 57.900 201.800 59 201.700 59.900 L 201.500 60.100 C 201.000 59.900 200.400 59 199.600 57.600 C 198.700 55.800 198.200 54.800 198.100 54.800 C 198.000 54.800 197.900 54.700 197.900 54.500 C 196.400 57.800 195.500 59.500 195.200 59.700 C 194.500 59.700 193.400 59.600 191.900 59.600 L 185.500 60.100 C 183.500 60.100 182.000 58.500 181.000 55.300 C 180.900 55.300 180.800 55.200 180.800 55.000 C 179.200 57.300 178.100 58.900 177.400 59.600 L 174.800 56.900 L 174.700 56.800 "/>
      <path id="ID0.47479660622775555" fill="none" stroke="#000000" stroke-width="4" stroke-linecap="round" stroke-linejoin="round" d="M 174.700 56.800 C 174.800 56.800 174.900 56.800 174.900 56.800 L 174.900 56.500 L 174.400 56.500 L 174.700 56.800 "/>
      <path id="ID0.8610300570726395" fill="none" stroke="#000000" stroke-width="4" stroke-linecap="round" stroke-linejoin="round" d="M 174.700 56.800 C 168.900 57.400 165.700 57.700 165.100 57.700 C 164.600 57.700 163.800 57.300 162.600 56.600 C 161.500 55.900 160.800 55.500 160.400 55.500 C 160.100 55.500 159.200 56.400 157.800 58.200 C 156.600 60.000 155.900 60.900 155.800 60.900 C 154.700 60.900 153.300 60.100 151.800 58.600 C 150.400 57 149.700 56.300 149.600 56.300 C 149.100 56.300 148.100 56.900 146.400 58.200 C 144.800 59.500 143.800 60.100 143.600 60.100 C 143.200 60.100 142.600 59.700 141.900 58.800 C 141.300 58.000 140.500 57.500 139.600 57.500 C 136.600 57.400 134.800 57.300 134.300 57.300 C 133.300 57.300 132.500 57.800 132 58.800 C 131.500 60.200 131 61.400 130.300 62.400 C 128.600 62.200 127.100 60.300 125.700 56.800 C 124.600 56.800 123.200 57.300 121.500 58.300 C 120.200 59.400 119.500 59.900 119.400 59.900 C 115.900 58.400 113.600 57.700 112.600 57.700 C 107.200 57.700 104.200 58.100 103.500 58.800 C 103.000 59.300 102.500 60.300 101.700 62.000 C 100.700 64.600 99.700 66.800 98.700 68.700 C 94.900 69 92.300 69 90.900 68.900 "/>
      <path id="ID0.17222414957359433" fill="none" stroke="#000000" stroke-width="4" stroke-linecap="round" stroke-linejoin="round" d="M 12.500 40.800 C 13.900 38.200 15.600 36.900 17.400 36.900 C 22.800 36.900 25.400 40.700 25.400 48.300 C 25.400 49.800 24.700 51.500 23.300 53.600 C 21.700 55.900 20.000 57.100 18.300 57.100 C 15.900 57.100 14.000 55.900 12.500 53.600 C 11.400 51.700 10.800 49.500 10.800 47.100 C 10.800 45.100 11.400 42.900 12.500 40.800 "/>
      <path id="ID0.23417185572907329" fill="none" stroke="#000000" stroke-width="4" stroke-linecap="round" stroke-linejoin="round" d="M 66 22.200 C 74.500 29.100 78.800 38.400 78.800 50.200 C 78.800 59.400 75.200 67.600 68 74.700 C 61.100 81.600 53.500 85.100 45.200 85.100 C 42.500 85.100 40.600 85.200 39.600 85.500 L 39.600 82.900 C 40.800 76.700 41.300 71.100 41.300 66.400 C 41.300 59.700 40.800 50.600 39.900 39.200 C 38.800 26.600 37.800 18.300 36.600 14.000 C 48.100 13 57.900 15.800 66 22.200 "/>
      <path id="ID0.22429841430857778" fill="none" stroke="#000000" stroke-width="4" stroke-linecap="round" stroke-linejoin="round" d="M 90.600 68.700 C 88.400 74.100 85 79 80.500 83.500 C 71.500 92.500 60.700 97 48 97 C 35.300 97 24.500 92.500 15.500 83.500 C 6.500 74.500 2 63.700 2 51 C 2 38.300 6.500 27.500 15.500 18.400 C 24.500 9.500 35.300 5 48 5 C 60.700 5 71.500 9.500 80.500 18.400 C 85.100 23 88.500 28 90.700 33.500 L 213.700 32.200 C 215.600 33.700 217.600 35.800 219.800 38.800 C 222.300 42.100 224.100 44.400 225.400 45.500 "/>
    </g>
  </g>
</svg>